<mxfile host="app.diagrams.net" agent="Mozilla/5.0 (Windows NT 10.0; Win64; x64) AppleWebKit/537.36 (KHTML, like Gecko) Chrome/138.0.0.0 Safari/537.36 Edg/138.0.0.0" version="28.0.6">
  <diagram name="หน้า-1" id="5H7xdaNCP92vmXxPISz6">
    <mxGraphModel grid="1" page="1" gridSize="10" guides="1" tooltips="1" connect="1" arrows="1" fold="1" pageScale="1" pageWidth="827" pageHeight="1169" math="0" shadow="0">
      <root>
        <mxCell id="0" />
        <mxCell id="1" parent="0" />
        <mxCell id="FcBBgY3FB6724kL38ytQ-11" style="edgeStyle=orthogonalEdgeStyle;rounded=0;orthogonalLoop=1;jettySize=auto;html=1;exitX=0.5;exitY=1;exitDx=0;exitDy=0;entryX=0.5;entryY=0;entryDx=0;entryDy=0;" edge="1" parent="1" source="FcBBgY3FB6724kL38ytQ-1" target="FcBBgY3FB6724kL38ytQ-3">
          <mxGeometry relative="1" as="geometry" />
        </mxCell>
        <mxCell id="FcBBgY3FB6724kL38ytQ-1" value="เริ่ม" style="ellipse;whiteSpace=wrap;html=1;" vertex="1" parent="1">
          <mxGeometry x="340" y="-90" width="120" height="80" as="geometry" />
        </mxCell>
        <mxCell id="ppMsO4kj1laOj9p3sjdN-26" style="edgeStyle=orthogonalEdgeStyle;rounded=0;orthogonalLoop=1;jettySize=auto;html=1;exitX=0.5;exitY=1;exitDx=0;exitDy=0;entryX=0.5;entryY=0;entryDx=0;entryDy=0;" edge="1" parent="1" source="FcBBgY3FB6724kL38ytQ-2" target="ppMsO4kj1laOj9p3sjdN-22">
          <mxGeometry relative="1" as="geometry" />
        </mxCell>
        <mxCell id="FcBBgY3FB6724kL38ytQ-2" value="รับค่าตัวเลข--&amp;gt;N" style="shape=parallelogram;perimeter=parallelogramPerimeter;whiteSpace=wrap;html=1;fixedSize=1;" vertex="1" parent="1">
          <mxGeometry x="340" y="300" width="120" height="60" as="geometry" />
        </mxCell>
        <mxCell id="ppMsO4kj1laOj9p3sjdN-34" style="edgeStyle=orthogonalEdgeStyle;rounded=0;orthogonalLoop=1;jettySize=auto;html=1;exitX=0.5;exitY=1;exitDx=0;exitDy=0;entryX=0.5;entryY=0;entryDx=0;entryDy=0;" edge="1" parent="1" source="FcBBgY3FB6724kL38ytQ-3" target="ppMsO4kj1laOj9p3sjdN-32">
          <mxGeometry relative="1" as="geometry" />
        </mxCell>
        <mxCell id="FcBBgY3FB6724kL38ytQ-3" value="ประกาศตัวแปล&lt;div&gt;N,I&lt;/div&gt;&lt;div&gt;&lt;br&gt;&lt;/div&gt;" style="rounded=0;whiteSpace=wrap;html=1;" vertex="1" parent="1">
          <mxGeometry x="340" y="20" width="120" height="60" as="geometry" />
        </mxCell>
        <mxCell id="ppMsO4kj1laOj9p3sjdN-54" value="ไม่" style="edgeStyle=orthogonalEdgeStyle;rounded=0;orthogonalLoop=1;jettySize=auto;html=1;exitX=1;exitY=0.5;exitDx=0;exitDy=0;entryX=0.5;entryY=0;entryDx=0;entryDy=0;" edge="1" parent="1" source="FcBBgY3FB6724kL38ytQ-5" target="FcBBgY3FB6724kL38ytQ-31">
          <mxGeometry relative="1" as="geometry">
            <mxPoint x="660" y="890" as="targetPoint" />
          </mxGeometry>
        </mxCell>
        <mxCell id="FcBBgY3FB6724kL38ytQ-5" value="N%2==0" style="rhombus;whiteSpace=wrap;html=1;" vertex="1" parent="1">
          <mxGeometry x="330" y="720" width="140" height="150" as="geometry" />
        </mxCell>
        <mxCell id="ppMsO4kj1laOj9p3sjdN-44" style="edgeStyle=orthogonalEdgeStyle;rounded=0;orthogonalLoop=1;jettySize=auto;html=1;exitX=0.5;exitY=1;exitDx=0;exitDy=0;entryX=0;entryY=0.5;entryDx=0;entryDy=0;" edge="1" parent="1" source="FcBBgY3FB6724kL38ytQ-6" target="ppMsO4kj1laOj9p3sjdN-45">
          <mxGeometry relative="1" as="geometry">
            <mxPoint x="280" y="930.0043205915179" as="targetPoint" />
            <Array as="points">
              <mxPoint x="400" y="1312" />
              <mxPoint x="290" y="1312" />
              <mxPoint x="290" y="965" />
            </Array>
          </mxGeometry>
        </mxCell>
        <mxCell id="FcBBgY3FB6724kL38ytQ-6" value="i-2" style="rounded=0;whiteSpace=wrap;html=1;" vertex="1" parent="1">
          <mxGeometry x="340" y="1240" width="120" height="45" as="geometry" />
        </mxCell>
        <mxCell id="ppMsO4kj1laOj9p3sjdN-6" style="edgeStyle=orthogonalEdgeStyle;rounded=0;orthogonalLoop=1;jettySize=auto;html=1;exitX=0.5;exitY=1;exitDx=0;exitDy=0;entryX=0.5;entryY=0;entryDx=0;entryDy=0;" edge="1" parent="1" source="FcBBgY3FB6724kL38ytQ-7" target="FcBBgY3FB6724kL38ytQ-6">
          <mxGeometry relative="1" as="geometry" />
        </mxCell>
        <mxCell id="FcBBgY3FB6724kL38ytQ-7" value="แสดงค่า i" style="shape=parallelogram;perimeter=parallelogramPerimeter;whiteSpace=wrap;html=1;fixedSize=1;" vertex="1" parent="1">
          <mxGeometry x="340" y="1140" width="120" height="60" as="geometry" />
        </mxCell>
        <mxCell id="FcBBgY3FB6724kL38ytQ-13" style="edgeStyle=orthogonalEdgeStyle;rounded=0;orthogonalLoop=1;jettySize=auto;html=1;exitX=0.5;exitY=1;exitDx=0;exitDy=0;entryX=0.5;entryY=0;entryDx=0;entryDy=0;" edge="1" parent="1" source="FcBBgY3FB6724kL38ytQ-8" target="FcBBgY3FB6724kL38ytQ-2">
          <mxGeometry relative="1" as="geometry" />
        </mxCell>
        <mxCell id="FcBBgY3FB6724kL38ytQ-8" value="แสดง &quot;ใส่ตัวเลข&quot;" style="shape=parallelogram;perimeter=parallelogramPerimeter;whiteSpace=wrap;html=1;fixedSize=1;" vertex="1" parent="1">
          <mxGeometry x="340" y="210" width="120" height="60" as="geometry" />
        </mxCell>
        <mxCell id="ppMsO4kj1laOj9p3sjdN-69" style="edgeStyle=orthogonalEdgeStyle;rounded=0;orthogonalLoop=1;jettySize=auto;html=1;exitX=0.5;exitY=1;exitDx=0;exitDy=0;entryX=0.5;entryY=0;entryDx=0;entryDy=0;" edge="1" parent="1" source="FcBBgY3FB6724kL38ytQ-31" target="ppMsO4kj1laOj9p3sjdN-52">
          <mxGeometry relative="1" as="geometry" />
        </mxCell>
        <mxCell id="FcBBgY3FB6724kL38ytQ-31" value="i--&amp;gt;1" style="rounded=0;whiteSpace=wrap;html=1;" vertex="1" parent="1">
          <mxGeometry x="560" y="892.71" width="120" height="50" as="geometry" />
        </mxCell>
        <mxCell id="ppMsO4kj1laOj9p3sjdN-51" style="edgeStyle=orthogonalEdgeStyle;rounded=0;orthogonalLoop=1;jettySize=auto;html=1;exitX=0.5;exitY=1;exitDx=0;exitDy=0;entryX=0;entryY=0.5;entryDx=0;entryDy=0;" edge="1" parent="1" source="FcBBgY3FB6724kL38ytQ-32" target="ppMsO4kj1laOj9p3sjdN-52">
          <mxGeometry relative="1" as="geometry">
            <mxPoint x="520" y="900" as="targetPoint" />
            <Array as="points">
              <mxPoint x="620" y="1310" />
              <mxPoint x="520" y="1310" />
              <mxPoint x="520" y="994" />
            </Array>
          </mxGeometry>
        </mxCell>
        <mxCell id="FcBBgY3FB6724kL38ytQ-32" value="i+2" style="rounded=0;whiteSpace=wrap;html=1;" vertex="1" parent="1">
          <mxGeometry x="560" y="1245" width="120" height="45" as="geometry" />
        </mxCell>
        <mxCell id="FcBBgY3FB6724kL38ytQ-33" style="edgeStyle=orthogonalEdgeStyle;rounded=0;orthogonalLoop=1;jettySize=auto;html=1;exitX=0.5;exitY=1;exitDx=0;exitDy=0;entryX=0.5;entryY=0;entryDx=0;entryDy=0;" edge="1" parent="1" source="FcBBgY3FB6724kL38ytQ-34" target="FcBBgY3FB6724kL38ytQ-32">
          <mxGeometry relative="1" as="geometry" />
        </mxCell>
        <mxCell id="FcBBgY3FB6724kL38ytQ-36" style="edgeStyle=orthogonalEdgeStyle;rounded=0;orthogonalLoop=1;jettySize=auto;html=1;exitX=0.5;exitY=1;exitDx=0;exitDy=0;" edge="1" parent="1" source="FcBBgY3FB6724kL38ytQ-34">
          <mxGeometry relative="1" as="geometry">
            <mxPoint x="620" y="1245" as="targetPoint" />
          </mxGeometry>
        </mxCell>
        <mxCell id="FcBBgY3FB6724kL38ytQ-34" value="แสดงค่า i" style="shape=parallelogram;perimeter=parallelogramPerimeter;whiteSpace=wrap;html=1;fixedSize=1;" vertex="1" parent="1">
          <mxGeometry x="560" y="1140" width="120" height="60" as="geometry" />
        </mxCell>
        <mxCell id="FcBBgY3FB6724kL38ytQ-44" value="จบ" style="ellipse;whiteSpace=wrap;html=1;" vertex="1" parent="1">
          <mxGeometry x="340" y="1490" width="120" height="80" as="geometry" />
        </mxCell>
        <mxCell id="ppMsO4kj1laOj9p3sjdN-59" style="edgeStyle=orthogonalEdgeStyle;rounded=0;orthogonalLoop=1;jettySize=auto;html=1;exitX=0.5;exitY=1;exitDx=0;exitDy=0;entryX=0.5;entryY=0;entryDx=0;entryDy=0;" edge="1" parent="1" source="ppMsO4kj1laOj9p3sjdN-2" target="ppMsO4kj1laOj9p3sjdN-45">
          <mxGeometry relative="1" as="geometry" />
        </mxCell>
        <mxCell id="ppMsO4kj1laOj9p3sjdN-2" value="i--&amp;gt;N" style="rounded=0;whiteSpace=wrap;html=1;" vertex="1" parent="1">
          <mxGeometry x="345" y="892.71" width="100" height="45" as="geometry" />
        </mxCell>
        <mxCell id="ppMsO4kj1laOj9p3sjdN-27" style="edgeStyle=orthogonalEdgeStyle;rounded=0;orthogonalLoop=1;jettySize=auto;html=1;exitX=0.5;exitY=1;exitDx=0;exitDy=0;entryX=0.5;entryY=0;entryDx=0;entryDy=0;" edge="1" parent="1" source="ppMsO4kj1laOj9p3sjdN-22" target="ppMsO4kj1laOj9p3sjdN-25">
          <mxGeometry relative="1" as="geometry" />
        </mxCell>
        <mxCell id="ppMsO4kj1laOj9p3sjdN-28" value="จริง" style="edgeLabel;html=1;align=center;verticalAlign=middle;resizable=0;points=[];" connectable="0" vertex="1" parent="ppMsO4kj1laOj9p3sjdN-27">
          <mxGeometry x="-0.2736" y="-1" relative="1" as="geometry">
            <mxPoint as="offset" />
          </mxGeometry>
        </mxCell>
        <mxCell id="ppMsO4kj1laOj9p3sjdN-30" style="edgeStyle=orthogonalEdgeStyle;rounded=0;orthogonalLoop=1;jettySize=auto;html=1;exitX=1;exitY=0.5;exitDx=0;exitDy=0;entryX=0.5;entryY=0;entryDx=0;entryDy=0;" edge="1" parent="1" source="ppMsO4kj1laOj9p3sjdN-22" target="FcBBgY3FB6724kL38ytQ-5">
          <mxGeometry relative="1" as="geometry">
            <mxPoint x="400" y="650" as="targetPoint" />
            <Array as="points">
              <mxPoint x="550" y="460" />
              <mxPoint x="550" y="630" />
              <mxPoint x="400" y="630" />
            </Array>
          </mxGeometry>
        </mxCell>
        <mxCell id="ppMsO4kj1laOj9p3sjdN-31" value="ไม่จริง" style="edgeLabel;html=1;align=center;verticalAlign=middle;resizable=0;points=[];" connectable="0" vertex="1" parent="ppMsO4kj1laOj9p3sjdN-30">
          <mxGeometry x="-0.1828" relative="1" as="geometry">
            <mxPoint as="offset" />
          </mxGeometry>
        </mxCell>
        <mxCell id="ppMsO4kj1laOj9p3sjdN-22" value="ตรวจ N != 1&amp;nbsp;" style="rhombus;whiteSpace=wrap;html=1;" vertex="1" parent="1">
          <mxGeometry x="300" y="395" width="200" height="130" as="geometry" />
        </mxCell>
        <mxCell id="ppMsO4kj1laOj9p3sjdN-36" style="edgeStyle=orthogonalEdgeStyle;rounded=0;orthogonalLoop=1;jettySize=auto;html=1;exitX=0;exitY=0.5;exitDx=0;exitDy=0;entryX=0;entryY=0.5;entryDx=0;entryDy=0;" edge="1" parent="1" source="ppMsO4kj1laOj9p3sjdN-25" target="ppMsO4kj1laOj9p3sjdN-32">
          <mxGeometry relative="1" as="geometry">
            <Array as="points">
              <mxPoint x="270" y="585" />
              <mxPoint x="270" y="145" />
            </Array>
          </mxGeometry>
        </mxCell>
        <mxCell id="ppMsO4kj1laOj9p3sjdN-25" value="แสดง &quot;ใส่ตัวเลขเท่านัน&quot;" style="shape=parallelogram;perimeter=parallelogramPerimeter;whiteSpace=wrap;html=1;fixedSize=1;" vertex="1" parent="1">
          <mxGeometry x="290" y="555" width="220" height="60" as="geometry" />
        </mxCell>
        <mxCell id="ppMsO4kj1laOj9p3sjdN-35" style="edgeStyle=orthogonalEdgeStyle;rounded=0;orthogonalLoop=1;jettySize=auto;html=1;exitX=0.5;exitY=1;exitDx=0;exitDy=0;entryX=0.5;entryY=0;entryDx=0;entryDy=0;" edge="1" parent="1" source="ppMsO4kj1laOj9p3sjdN-32" target="FcBBgY3FB6724kL38ytQ-8">
          <mxGeometry relative="1" as="geometry" />
        </mxCell>
        <mxCell id="ppMsO4kj1laOj9p3sjdN-32" value="" style="ellipse;whiteSpace=wrap;html=1;aspect=fixed;" vertex="1" parent="1">
          <mxGeometry x="375" y="120" width="50" height="50" as="geometry" />
        </mxCell>
        <mxCell id="ppMsO4kj1laOj9p3sjdN-62" value="จริง" style="edgeStyle=orthogonalEdgeStyle;rounded=0;orthogonalLoop=1;jettySize=auto;html=1;exitX=0.5;exitY=1;exitDx=0;exitDy=0;entryX=0.5;entryY=0;entryDx=0;entryDy=0;" edge="1" parent="1" source="ppMsO4kj1laOj9p3sjdN-41" target="FcBBgY3FB6724kL38ytQ-7">
          <mxGeometry relative="1" as="geometry" />
        </mxCell>
        <mxCell id="ppMsO4kj1laOj9p3sjdN-77" value="ไม่" style="edgeStyle=orthogonalEdgeStyle;rounded=0;orthogonalLoop=1;jettySize=auto;html=1;exitX=1;exitY=0.5;exitDx=0;exitDy=0;entryX=0.5;entryY=0;entryDx=0;entryDy=0;" edge="1" parent="1" source="ppMsO4kj1laOj9p3sjdN-41" target="ppMsO4kj1laOj9p3sjdN-76">
          <mxGeometry relative="1" as="geometry" />
        </mxCell>
        <mxCell id="ppMsO4kj1laOj9p3sjdN-41" value="i != 0" style="rhombus;whiteSpace=wrap;html=1;" vertex="1" parent="1">
          <mxGeometry x="332.5" y="1000" width="135" height="115" as="geometry" />
        </mxCell>
        <mxCell id="ppMsO4kj1laOj9p3sjdN-61" style="edgeStyle=orthogonalEdgeStyle;rounded=0;orthogonalLoop=1;jettySize=auto;html=1;exitX=0.5;exitY=1;exitDx=0;exitDy=0;entryX=0.5;entryY=0;entryDx=0;entryDy=0;" edge="1" parent="1" source="ppMsO4kj1laOj9p3sjdN-45" target="ppMsO4kj1laOj9p3sjdN-41">
          <mxGeometry relative="1" as="geometry" />
        </mxCell>
        <mxCell id="ppMsO4kj1laOj9p3sjdN-45" value="" style="ellipse;whiteSpace=wrap;html=1;aspect=fixed;" vertex="1" parent="1">
          <mxGeometry x="384" y="950" width="30" height="30" as="geometry" />
        </mxCell>
        <mxCell id="ppMsO4kj1laOj9p3sjdN-67" value="จริง" style="edgeStyle=orthogonalEdgeStyle;rounded=0;orthogonalLoop=1;jettySize=auto;html=1;exitX=0.5;exitY=1;exitDx=0;exitDy=0;entryX=0.5;entryY=0;entryDx=0;entryDy=0;" edge="1" parent="1" source="ppMsO4kj1laOj9p3sjdN-49" target="FcBBgY3FB6724kL38ytQ-34">
          <mxGeometry relative="1" as="geometry" />
        </mxCell>
        <mxCell id="ppMsO4kj1laOj9p3sjdN-78" value="ไม่" style="edgeStyle=orthogonalEdgeStyle;rounded=0;orthogonalLoop=1;jettySize=auto;html=1;exitX=1;exitY=0.5;exitDx=0;exitDy=0;entryX=1;entryY=0.5;entryDx=0;entryDy=0;" edge="1" parent="1" source="ppMsO4kj1laOj9p3sjdN-49" target="ppMsO4kj1laOj9p3sjdN-76">
          <mxGeometry relative="1" as="geometry">
            <Array as="points">
              <mxPoint x="700" y="1060" />
              <mxPoint x="700" y="1365" />
            </Array>
          </mxGeometry>
        </mxCell>
        <mxCell id="ppMsO4kj1laOj9p3sjdN-49" value="i != N" style="rhombus;whiteSpace=wrap;html=1;" vertex="1" parent="1">
          <mxGeometry x="579.99" y="1020" width="80" height="80" as="geometry" />
        </mxCell>
        <mxCell id="ppMsO4kj1laOj9p3sjdN-68" style="edgeStyle=orthogonalEdgeStyle;rounded=0;orthogonalLoop=1;jettySize=auto;html=1;exitX=0.5;exitY=1;exitDx=0;exitDy=0;entryX=0.5;entryY=0;entryDx=0;entryDy=0;" edge="1" parent="1" source="ppMsO4kj1laOj9p3sjdN-52" target="ppMsO4kj1laOj9p3sjdN-49">
          <mxGeometry relative="1" as="geometry" />
        </mxCell>
        <mxCell id="ppMsO4kj1laOj9p3sjdN-52" value="" style="ellipse;whiteSpace=wrap;html=1;aspect=fixed;" vertex="1" parent="1">
          <mxGeometry x="606.35" y="980" width="27.29" height="27.29" as="geometry" />
        </mxCell>
        <mxCell id="ppMsO4kj1laOj9p3sjdN-60" value="จริง" style="edgeStyle=orthogonalEdgeStyle;rounded=0;orthogonalLoop=1;jettySize=auto;html=1;exitX=0.5;exitY=1;exitDx=0;exitDy=0;entryX=0.557;entryY=0.029;entryDx=0;entryDy=0;entryPerimeter=0;" edge="1" parent="1" source="FcBBgY3FB6724kL38ytQ-5" target="ppMsO4kj1laOj9p3sjdN-2">
          <mxGeometry relative="1" as="geometry" />
        </mxCell>
        <mxCell id="ppMsO4kj1laOj9p3sjdN-80" style="edgeStyle=orthogonalEdgeStyle;rounded=0;orthogonalLoop=1;jettySize=auto;html=1;exitX=0.5;exitY=1;exitDx=0;exitDy=0;entryX=0.5;entryY=0;entryDx=0;entryDy=0;" edge="1" parent="1" source="ppMsO4kj1laOj9p3sjdN-72" target="FcBBgY3FB6724kL38ytQ-44">
          <mxGeometry relative="1" as="geometry" />
        </mxCell>
        <mxCell id="ppMsO4kj1laOj9p3sjdN-72" value="แสดงค่า i" style="shape=parallelogram;perimeter=parallelogramPerimeter;whiteSpace=wrap;html=1;fixedSize=1;" vertex="1" parent="1">
          <mxGeometry x="339" y="1400" width="120" height="60" as="geometry" />
        </mxCell>
        <mxCell id="ppMsO4kj1laOj9p3sjdN-79" style="edgeStyle=orthogonalEdgeStyle;rounded=0;orthogonalLoop=1;jettySize=auto;html=1;exitX=0;exitY=0.5;exitDx=0;exitDy=0;entryX=0.5;entryY=0;entryDx=0;entryDy=0;" edge="1" parent="1" source="ppMsO4kj1laOj9p3sjdN-76" target="ppMsO4kj1laOj9p3sjdN-72">
          <mxGeometry relative="1" as="geometry" />
        </mxCell>
        <mxCell id="ppMsO4kj1laOj9p3sjdN-76" value="" style="ellipse;whiteSpace=wrap;html=1;aspect=fixed;" vertex="1" parent="1">
          <mxGeometry x="480" y="1350" width="30" height="30" as="geometry" />
        </mxCell>
      </root>
    </mxGraphModel>
  </diagram>
</mxfile>
